<svg width="143" height="22" viewBox="0 0 143 22" fill="none" xmlns="http://www.w3.org/2000/svg">
<path d="M141.666 21.4925C141.997 21.4925 142.267 21.224 142.267 20.8974V1.24875C142.267 0.920917 141.996 0.65366 141.666 0.65366H138.659C138.328 0.65366 138.058 0.922104 138.058 1.24875V12.4426C138.058 12.6208 137.848 12.6814 137.786 12.502L133.666 1.18936C133.576 0.920917 133.365 0.65366 132.913 0.65366H129.334C129.003 0.65366 128.733 0.922104 128.733 1.24875V20.8974C128.733 21.2252 129.004 21.4925 129.334 21.4925H132.341C132.672 21.4925 132.942 21.224 132.942 20.8974V10.5968C132.942 10.4186 133.152 10.358 133.213 10.5374L137.304 20.9865C137.394 21.2252 137.605 21.4925 138.116 21.4925H141.665H141.666ZM115.02 0.325825C110.87 0.325825 108.284 3.33216 107.863 6.90507C107.561 9.4054 107.561 12.7396 107.863 15.2411C108.284 18.814 110.87 21.8203 115.02 21.8203C119.171 21.8203 121.757 18.814 122.178 15.2411C122.479 12.7407 122.479 9.40658 122.178 6.90507C121.757 3.33216 119.171 0.325825 115.02 0.325825ZM115.02 17.6226C113.186 17.6226 112.253 16.5512 112.103 15.2411C111.802 12.7407 111.802 9.40658 112.103 6.90507C112.253 5.59492 113.186 4.52353 115.02 4.52353C116.855 4.52353 117.787 5.59492 117.937 6.90507C118.238 9.4054 118.238 12.7396 117.937 15.2411C117.787 16.5512 116.855 17.6226 115.02 17.6226ZM97.9993 15.3005C97.9993 16.6997 96.8269 17.7414 95.0222 17.7414C93.2175 17.7414 92.1052 16.67 92.1052 15.3005V14.4072C92.1052 14.0794 91.834 13.8121 91.5041 13.8121H88.467C88.1359 13.8121 87.8659 14.0806 87.8659 14.4072V15.3005C87.8659 18.9328 90.8729 21.8203 95.0234 21.8203C99.174 21.8203 102.361 19.1703 102.361 15.3005C102.361 11.1622 99.2628 9.43628 95.0834 8.60244C93.5199 8.3043 92.4064 7.59043 92.4064 6.45846C92.4064 5.26709 93.3387 4.37505 95.0222 4.37505C96.7057 4.37505 97.6993 5.41675 97.6993 6.60812V7.05473C97.6993 7.38257 97.9704 7.64982 98.3004 7.64982H101.337C101.669 7.64982 101.939 7.38138 101.939 7.05473V6.60812C101.939 3.09578 99.0516 0.327014 95.021 0.327014C90.9905 0.327014 88.1347 3.09578 88.1347 6.60812C88.1347 10.4483 91.1117 12.0863 94.871 12.9189C97.1269 13.4249 97.9993 14.02 97.9993 15.3005ZM79.5036 21.0459C79.5936 21.3143 79.8048 21.4925 80.0748 21.4925H83.233C83.7141 21.4925 83.8941 21.1646 83.8341 20.8974L78.4813 1.10027C78.4213 0.831831 78.1801 0.65366 77.9101 0.65366H73.8807C73.6096 0.65366 73.3696 0.831831 73.3096 1.10027L67.9267 20.8974C67.8667 21.1658 68.0467 21.4925 68.5279 21.4925H71.6861C71.9573 21.4925 72.1972 21.3143 72.2572 21.0459L73.0996 17.979C73.1596 17.7105 73.2796 17.5323 73.5508 17.5323H78.1225C78.3937 17.5323 78.5137 17.7402 78.5737 17.979L79.506 21.0459H79.5036ZM77.2489 13.3655H74.4819C74.3019 13.3655 74.1807 13.2764 74.2407 13.0377L75.6842 5.89306C75.7142 5.80398 75.7442 5.77428 75.8342 5.77428H75.8942C75.9842 5.77428 76.0142 5.80398 76.0442 5.89306L77.4877 13.0377C77.5477 13.2764 77.4277 13.3655 77.2465 13.3655M58.1821 4.82166C59.3244 4.82166 60.2868 5.77428 60.2868 6.90507C60.2868 8.03586 59.3244 8.98848 58.1821 8.98848H55.4751C55.2951 8.98848 55.1739 8.8697 55.1739 8.69034V5.11743C55.1739 4.93926 55.2939 4.81929 55.4751 4.81929H58.1821V4.82166ZM51.5657 0.65366C51.2345 0.65366 50.9646 0.922104 50.9646 1.24875V20.8974C50.9646 21.2252 51.2357 21.4925 51.5657 21.4925H54.5727C54.9039 21.4925 55.1739 21.224 55.1739 20.8974V13.4546C55.1739 13.2764 55.2939 13.1565 55.4751 13.1565H58.1821C61.6403 13.1565 64.4973 10.358 64.4973 6.90507C64.4973 3.45213 61.6403 0.65366 58.1821 0.65366H51.5657ZM41.5511 21.0459C41.6411 21.3143 41.8523 21.4925 42.1223 21.4925H45.2805C45.7617 21.4925 45.9417 21.1646 45.8817 20.8974L40.5288 1.10027C40.4688 0.831831 40.2276 0.65366 39.9576 0.65366H35.9283C35.6571 0.65366 35.4171 0.831831 35.3571 1.10027L29.9743 20.8974C29.9143 21.1658 30.0943 21.4925 30.5754 21.4925H33.7336C34.0048 21.4925 34.2448 21.3143 34.3048 21.0459L35.1471 17.979C35.2071 17.7105 35.3271 17.5323 35.5983 17.5323H40.17C40.4412 17.5323 40.5612 17.7402 40.6212 17.979L41.5535 21.0459H41.5511ZM39.2953 13.3655H36.5283C36.3483 13.3655 36.2271 13.2764 36.2871 13.0377L37.7306 5.89306C37.7606 5.80398 37.7906 5.77428 37.8806 5.77428H37.9406C38.0306 5.77428 38.0606 5.80398 38.0906 5.89306L39.5341 13.0377C39.5941 13.2764 39.4741 13.3655 39.2929 13.3655M24.8902 1.24875C24.8902 0.920917 24.619 0.65366 24.289 0.65366H21.282C20.9508 0.65366 20.6808 0.922104 20.6808 1.24875V20.8974C20.6808 21.2252 20.952 21.4925 21.282 21.4925H24.289C24.6202 21.4925 24.8902 21.224 24.8902 20.8974V1.24875ZM1.10165 0.65366C0.770472 0.65366 0.500488 0.922104 0.500488 1.24875V20.8974C0.500488 21.2252 0.771672 21.4925 1.10165 21.4925H7.41686C11.1162 21.4925 13.7021 18.4862 14.1232 14.9132C14.4244 12.4129 14.4244 9.73323 14.1232 7.2329C13.7021 3.65999 11.1162 0.65366 7.41686 0.65366H1.10165ZM7.41806 4.82166C8.80157 4.82166 9.73392 5.92276 9.88391 7.2329C10.1851 9.73323 10.1851 12.4129 9.88391 14.9132C9.73392 16.2234 8.80157 17.3245 7.41806 17.3245H5.01221C4.83222 17.3245 4.71103 17.2057 4.71103 17.0263V5.11861C4.71103 4.94044 4.83102 4.82048 5.01221 4.82048H7.41806V4.82166Z" fill="black"/>
</svg>
